<?xml version="1.0" encoding="UTF-8" standalone="no"?>
<!DOCTYPE svg PUBLIC "-//W3C//DTD SVG 1.1//EN" "http://www.w3.org/Graphics/SVG/1.1/DTD/svg11.dtd">
<!-- Generated by graphviz version 2.40.1 (20161225.0304)
 -->
<!-- Title: snakemake_dag Pages: 1 -->
<svg width="204pt" height="413pt" viewBox="7.20 7.20 196.54 405.60" xmlns="http://www.w3.org/2000/svg" xmlns:xlink="http://www.w3.org/1999/xlink">
<g id="graph0" class="graph" transform="scale(1 1) rotate(0) translate(14.4 398.4)">
<title>snakemake_dag</title>
<!-- reads -->
<g id="node1" class="node">
<title>reads</title>
<path fill="none" stroke="#cccccc" stroke-width="2" d="M71.9426,-384C71.9426,-384 38.7504,-384 38.7504,-384 32.7504,-384 26.7504,-378 26.7504,-372 26.7504,-372 26.7504,-348 26.7504,-348 26.7504,-342 32.7504,-336 38.7504,-336 38.7504,-336 71.9426,-336 71.9426,-336 77.9426,-336 83.9426,-342 83.9426,-348 83.9426,-348 83.9426,-372 83.9426,-372 83.9426,-378 77.9426,-384 71.9426,-384"/>
<text text-anchor="middle" x="55.3465" y="-357" font-family="sans" font-size="10.00" fill="#aaaaaa">reads</text>
</g>
<!-- count_kmer -->
<g id="node3" class="node">
<title>count_kmer</title>
<path fill="none" stroke="#cccccc" stroke-width="2" d="M125.1119,-300C125.1119,-300 67.5811,-300 67.5811,-300 61.5811,-300 55.5811,-294 55.5811,-288 55.5811,-288 55.5811,-264 55.5811,-264 55.5811,-258 61.5811,-252 67.5811,-252 67.5811,-252 125.1119,-252 125.1119,-252 131.1119,-252 137.1119,-258 137.1119,-264 137.1119,-264 137.1119,-288 137.1119,-288 137.1119,-294 131.1119,-300 125.1119,-300"/>
<text text-anchor="middle" x="96.3465" y="-273" font-family="sans" font-size="10.00" fill="#aaaaaa">count kmer</text>
</g>
<!-- reads&#45;&gt;count_kmer -->
<g id="edge1" class="edge">
<title>reads-&gt;count_kmer</title>
<path fill="none" stroke="#cccccc" stroke-width="2" d="M67.2054,-335.7037C71.2001,-327.5196 75.7305,-318.2376 80.0085,-309.4729"/>
<polygon fill="#cccccc" stroke="#cccccc" stroke-width="2" points="83.2732,-310.7636 84.5143,-300.2417 76.9825,-307.6931 83.2732,-310.7636"/>
</g>
<!-- reference -->
<g id="node2" class="node">
<title>reference</title>
<path fill="none" stroke="#cccccc" stroke-width="2" d="M163.0287,-384C163.0287,-384 113.6643,-384 113.6643,-384 107.6643,-384 101.6643,-378 101.6643,-372 101.6643,-372 101.6643,-348 101.6643,-348 101.6643,-342 107.6643,-336 113.6643,-336 113.6643,-336 163.0287,-336 163.0287,-336 169.0287,-336 175.0287,-342 175.0287,-348 175.0287,-348 175.0287,-372 175.0287,-372 175.0287,-378 169.0287,-384 163.0287,-384"/>
<text text-anchor="middle" x="138.3465" y="-357" font-family="sans" font-size="10.00" fill="#aaaaaa">reference</text>
</g>
<!-- reference&#45;&gt;count_kmer -->
<g id="edge2" class="edge">
<title>reference-&gt;count_kmer</title>
<path fill="none" stroke="#cccccc" stroke-width="2" d="M126.1984,-335.7037C122.0627,-327.4325 117.3665,-318.04 112.9432,-309.1934"/>
<polygon fill="#cccccc" stroke="#cccccc" stroke-width="2" points="116.07,-307.6207 108.4673,-300.2417 109.809,-310.7512 116.07,-307.6207"/>
</g>
<!-- dbg -->
<g id="node4" class="node">
<title>dbg</title>
<path fill="none" stroke="#cccccc" stroke-width="2" d="M94.4414,-216C94.4414,-216 24.2516,-216 24.2516,-216 18.2516,-216 12.2516,-210 12.2516,-204 12.2516,-204 12.2516,-180 12.2516,-180 12.2516,-174 18.2516,-168 24.2516,-168 24.2516,-168 94.4414,-168 94.4414,-168 100.4414,-168 106.4414,-174 106.4414,-180 106.4414,-180 106.4414,-204 106.4414,-204 106.4414,-210 100.4414,-216 94.4414,-216"/>
<text text-anchor="middle" x="59.3465" y="-189" font-family="sans" font-size="10.00" fill="#aaaaaa">debruijn graph</text>
</g>
<!-- count_kmer&#45;&gt;dbg -->
<g id="edge3" class="edge">
<title>count_kmer-&gt;dbg</title>
<path fill="none" stroke="#cccccc" stroke-width="2" d="M85.6446,-251.7037C82.0396,-243.5196 77.9512,-234.2376 74.0905,-225.4729"/>
<polygon fill="#cccccc" stroke="#cccccc" stroke-width="2" points="77.2585,-223.9823 70.0244,-216.2417 70.8524,-226.8041 77.2585,-223.9823"/>
</g>
<!-- map_reads -->
<g id="node5" class="node">
<title>map_reads</title>
<path fill="none" stroke="#cccccc" stroke-width="2" d="M98.5399,-132C98.5399,-132 12.1531,-132 12.1531,-132 6.1531,-132 .1531,-126 .1531,-120 .1531,-120 .1531,-96 .1531,-96 .1531,-90 6.1531,-84 12.1531,-84 12.1531,-84 98.5399,-84 98.5399,-84 104.5399,-84 110.5399,-90 110.5399,-96 110.5399,-96 110.5399,-120 110.5399,-120 110.5399,-126 104.5399,-132 98.5399,-132"/>
<text text-anchor="middle" x="55.3465" y="-105" font-family="sans" font-size="10.00" fill="#aaaaaa">read map on graph</text>
</g>
<!-- dbg&#45;&gt;map_reads -->
<g id="edge4" class="edge">
<title>dbg-&gt;map_reads</title>
<path fill="none" stroke="#cccccc" stroke-width="2" d="M58.1895,-167.7037C57.8123,-159.7808 57.386,-150.829 56.9805,-142.3136"/>
<polygon fill="#cccccc" stroke="#cccccc" stroke-width="2" points="60.4726,-142.0638 56.5009,-132.2417 53.4806,-142.3969 60.4726,-142.0638"/>
</g>
<!-- cor_reads -->
<g id="node6" class="node">
<title>cor_reads</title>
<path fill="none" stroke="#cccccc" stroke-width="2" d="M132.6357,-48C132.6357,-48 60.0573,-48 60.0573,-48 54.0573,-48 48.0573,-42 48.0573,-36 48.0573,-36 48.0573,-12 48.0573,-12 48.0573,-6 54.0573,0 60.0573,0 60.0573,0 132.6357,0 132.6357,0 138.6357,0 144.6357,-6 144.6357,-12 144.6357,-12 144.6357,-36 144.6357,-36 144.6357,-42 138.6357,-48 132.6357,-48"/>
<text text-anchor="middle" x="96.3465" y="-21" font-family="sans" font-size="10.00" fill="#aaaaaa">corrected reads</text>
</g>
<!-- map_reads&#45;&gt;cor_reads -->
<g id="edge5" class="edge">
<title>map_reads-&gt;cor_reads</title>
<path fill="none" stroke="#cccccc" stroke-width="2" d="M67.2054,-83.7037C71.2001,-75.5196 75.7305,-66.2376 80.0085,-57.4729"/>
<polygon fill="#cccccc" stroke="#cccccc" stroke-width="2" points="83.2732,-58.7636 84.5143,-48.2417 76.9825,-55.6931 83.2732,-58.7636"/>
</g>
<!-- cor_reads&#45;&gt;count_kmer -->
<g id="edge6" class="edge">
<title>cor_reads-&gt;count_kmer</title>
<path fill="none" stroke="#cccccc" stroke-width="2" d="M107.9549,-48.2226C112.4693,-58.9266 117.0927,-71.8239 119.3465,-84 130.0292,-141.7132 125.6886,-158.2248 115.3465,-216 113.7966,-224.6582 111.3428,-233.804 108.7067,-242.2747"/>
<polygon fill="#cccccc" stroke="#cccccc" stroke-width="2" points="105.3607,-241.246 105.5716,-251.8387 112.0124,-243.4265 105.3607,-241.246"/>
</g>
</g>
</svg>